<?xml version="1.0" standalone="no"?>
<!DOCTYPE svg PUBLIC "-//W3C//DTD SVG 20010904//EN"
 "http://www.w3.org/TR/2001/REC-SVG-20010904/DTD/svg10.dtd">
<svg version="1.0" xmlns="http://www.w3.org/2000/svg"
 width="300.000000pt" height="300.000000pt" viewBox="0 0 300.000000 300.000000"
 preserveAspectRatio="xMidYMid meet">
<metadata>
Created by potrace 1.14, written by Peter Selinger 2001-2017
</metadata>
<g transform="translate(0.000000,300.000000) scale(0.100000,-0.100000)"
fill="#000000" stroke="none">
<path d="M796 2977 c-136 -27 -299 -102 -410 -187 -89 -68 -202 -201 -260
-305 -135 -243 -162 -556 -69 -814 124 -346 411 -590 770 -655 72 -13 45 -14
-375 -15 l-454 -1 6 -73 c11 -145 41 -250 107 -380 108 -214 289 -382 509
-471 215 -88 478 -98 690 -26 70 23 208 90 245 118 13 9 33 24 46 32 44 29
175 165 221 232 81 116 136 251 162 395 13 72 14 46 15 -374 l1 -453 39 0
c144 0 363 69 500 158 296 192 468 518 457 867 -7 226 -78 427 -211 595 -27
33 -133 140 -166 165 -112 88 -283 169 -400 190 -19 4 -52 10 -74 15 -23 4
149 8 408 9 l449 1 -6 76 c-32 402 -299 744 -682 873 -33 11 -74 23 -90 25
-16 3 -51 10 -79 15 -27 5 -106 8 -175 6 -257 -6 -476 -98 -662 -277 -158
-152 -253 -330 -292 -545 -13 -72 -14 -46 -15 374 l-1 453 -56 -2 c-31 -1 -97
-11 -148 -21z m835 -995 c225 -59 385 -285 366 -520 -20 -253 -221 -448 -472
-458 -146 -5 -258 35 -361 129 -212 193 -218 515 -15 718 131 130 304 177 482
131z"/>
</g>
</svg>
