<svg xmlns="http://www.w3.org/2000/svg" fill="none"><path fill="#264FE1" fill-rule="evenodd" d="M24.806 5.62a19.186 19.186 0 0 0-5.62 13.566V0a19.186 19.186 0 1 0 0 38.373H0a19.186 19.186 0 1 0 38.373 0v19.186a19.186 19.186 0 1 0 0-38.373h19.186A19.186 19.186 0 0 0 24.806 5.62Zm3.973 32.753a9.593 9.593 0 1 0 0-19.187 9.593 9.593 0 0 0 0 19.187Z" clip-rule="evenodd"/><path fill="#020105" d="M99.436 15.19v5.717H86.198v5.986H97.21v5.602H86.197v9.862h-6.255V15.189h19.493ZM109.468 36.716h13.162v5.64h-19.416V15.19h6.254v21.527ZM131.834 26.47c1.048-1.892 2.084-3.773 3.108-5.64 1.049-1.868 2.11-3.748 3.185-5.64h7.06l-10.284 17.037v10.13h-6.254V32.265L118.25 15.189h7.214l6.37 11.282ZM157.174 34.904v7.292h-2.394V22.742h7.292c1.064 0 2.027.11 2.889.33.862.22 1.596.569 2.201 1.046.606.477 1.064 1.11 1.376 1.898.331.77.496 1.706.496 2.807 0 .807-.12 1.532-.358 2.174a5.687 5.687 0 0 1-.963 1.65 5.24 5.24 0 0 1-1.376 1.157 8.057 8.057 0 0 1-1.651.687l4.072 7.705h-2.614l-3.88-7.292h-5.09Zm4.127-2.174c.716 0 1.385-.055 2.009-.165.642-.11 1.202-.312 1.679-.605a3.174 3.174 0 0 0 1.128-1.183c.293-.514.449-1.193.468-2.037 0-1.394-.413-2.375-1.239-2.944-.807-.587-1.981-.88-3.522-.88h-4.65v7.814h4.127ZM184.779 27.695v14.501h-1.954l-.165-2.091a3.86 3.86 0 0 1-.963 1.073 5.78 5.78 0 0 1-1.211.743 5.442 5.442 0 0 1-1.348.385 6.869 6.869 0 0 1-1.348.138c-1.046 0-1.927-.165-2.642-.495a4.464 4.464 0 0 1-1.734-1.376c-.44-.606-.752-1.312-.935-2.12a12.021 12.021 0 0 1-.275-2.668v-8.09h2.339v7.484c0 .66.027 1.303.082 1.927.074.623.229 1.174.468 1.65.257.478.624.863 1.101 1.156.477.294 1.128.45 1.953.468.826 0 1.523-.174 2.092-.523a4.044 4.044 0 0 0 1.348-1.32 4.84 4.84 0 0 0 .688-1.817c.11-.66.165-1.339.165-2.036v-6.99h2.339ZM194.078 29.62c-.312 0-.67.028-1.073.083a4.094 4.094 0 0 0-1.156.276 2.11 2.11 0 0 0-.88.605c-.239.275-.358.642-.358 1.1.018.533.238.945.66 1.239.441.294 1.018.523 1.734.688.33.073.715.147 1.156.22l1.375.22c.459.055.881.12 1.266.193.404.073.725.137.963.192.899.257 1.55.688 1.954 1.294.404.605.605 1.33.605 2.174 0 .898-.165 1.614-.495 2.146-.33.514-.752.945-1.266 1.293a6.743 6.743 0 0 1-2.063.826 11.99 11.99 0 0 1-2.174.192c-.844 0-1.615-.073-2.312-.22a7.28 7.28 0 0 1-1.926-.688 4.937 4.937 0 0 1-1.513-1.238c-.404-.514-.661-1.165-.771-1.954h2.367c.146.422.385.77.715 1.046.349.257.725.459 1.128.605.404.147.798.248 1.184.303.403.037.733.055.99.055.422 0 .826-.018 1.211-.055.403-.037.798-.12 1.183-.248.385-.146.716-.357.991-.633.275-.275.412-.642.412-1.1 0-.606-.174-1.046-.522-1.321-.331-.275-.808-.477-1.431-.605a20.923 20.923 0 0 0-1.486-.248c-.55-.092-1.11-.184-1.679-.275-.55-.11-1.091-.239-1.623-.385a5.346 5.346 0 0 1-1.349-.578 3.33 3.33 0 0 1-1.183-1.184c-.275-.495-.413-1.146-.413-1.953.019-.826.211-1.514.578-2.064.386-.55.863-.972 1.431-1.266a6.1 6.1 0 0 1 1.899-.633 11.381 11.381 0 0 1 2.119-.192c.899.018 1.66.119 2.284.302a4.685 4.685 0 0 1 1.678.853c.477.367.835.798 1.073 1.294.239.477.386.963.441 1.458h-2.147c-.036-.294-.174-.56-.412-.798a2.33 2.33 0 0 0-.826-.578 3.9 3.9 0 0 0-1.073-.33 7.375 7.375 0 0 0-1.266-.11ZM208.992 29.62c-.312 0-.669.028-1.073.083a4.094 4.094 0 0 0-1.156.276 2.11 2.11 0 0 0-.88.605c-.239.275-.358.642-.358 1.1.018.533.238.945.66 1.239.441.294 1.018.523 1.734.688.33.073.715.147 1.156.22l1.376.22c.458.055.88.12 1.265.193.404.073.725.137.963.192.899.257 1.551.688 1.954 1.294.404.605.605 1.33.605 2.174 0 .898-.165 1.614-.495 2.146-.33.514-.752.945-1.266 1.293a6.743 6.743 0 0 1-2.063.826 11.99 11.99 0 0 1-2.174.192c-.844 0-1.615-.073-2.312-.22a7.28 7.28 0 0 1-1.926-.688 4.937 4.937 0 0 1-1.513-1.238c-.404-.514-.661-1.165-.771-1.954h2.367c.146.422.385.77.715 1.046.349.257.725.459 1.128.605.404.147.798.248 1.184.303.403.037.733.055.99.055.422 0 .826-.018 1.211-.055.403-.037.798-.12 1.183-.248.385-.146.716-.357.991-.633.275-.275.413-.642.413-1.1 0-.606-.175-1.046-.523-1.321-.331-.275-.807-.477-1.431-.605-.44-.092-.936-.175-1.486-.248-.55-.092-1.11-.184-1.679-.275-.55-.11-1.091-.239-1.623-.385a5.323 5.323 0 0 1-1.348-.578 3.326 3.326 0 0 1-1.184-1.184c-.275-.495-.412-1.146-.412-1.953.018-.826.21-1.514.577-2.064.386-.55.863-.972 1.431-1.266a6.1 6.1 0 0 1 1.899-.633 11.381 11.381 0 0 1 2.119-.192c.899.018 1.66.119 2.284.302a4.685 4.685 0 0 1 1.678.853c.477.367.835.798 1.073 1.294.239.477.386.963.441 1.458h-2.147c-.036-.294-.174-.56-.412-.798a2.33 2.33 0 0 0-.826-.578 3.89 3.89 0 0 0-1.073-.33 7.375 7.375 0 0 0-1.266-.11ZM220.301 22.384c.459 0 .835.147 1.129.44.311.275.467.642.467 1.1 0 .46-.156.836-.467 1.13-.294.293-.67.44-1.129.44-.44 0-.816-.147-1.128-.44-.293-.294-.44-.67-.44-1.13 0-.458.147-.825.44-1.1.312-.293.688-.44 1.128-.44Zm-1.155 19.812V29.76h-2.367v-2.064h4.706v14.501h-2.339ZM234.716 40.435a5.943 5.943 0 0 1-2.422 1.486c-.77.275-1.642.413-2.614.413-.66 0-1.266-.074-1.816-.22a4.59 4.59 0 0 1-1.513-.716 3.667 3.667 0 0 1-1.101-1.266c-.257-.513-.385-1.137-.385-1.87 0-.606.101-1.138.302-1.597a3.47 3.47 0 0 1 .881-1.155c.367-.33.77-.597 1.211-.798.44-.22.963-.404 1.568-.55a28.517 28.517 0 0 1 2.669-.413c.991-.11 2.064-.22 3.22-.33 0-1.175-.294-2.101-.881-2.78-.568-.679-1.431-1.027-2.586-1.046-.734 0-1.395.12-1.982.358-.568.239-1.009.679-1.32 1.32h-2.477c.129-.66.385-1.228.771-1.705a4.62 4.62 0 0 1 1.375-1.156 5.657 5.657 0 0 1 1.734-.66 8.385 8.385 0 0 1 1.871-.22c1.119 0 2.046.174 2.779.522.753.33 1.349.798 1.789 1.404.44.587.752 1.293.936 2.119.183.825.275 1.724.275 2.696v7.925h-2.092l-.192-1.76Zm-7.512-2.256c0 .44.101.807.302 1.1.202.294.45.514.743.66.294.148.587.248.881.303.312.037.605.056.88.056.661 0 1.248-.083 1.762-.248a6.24 6.24 0 0 0 1.485-.743c.441-.294.789-.66 1.046-1.1.275-.441.413-1.074.413-1.9v-.963c-.239.037-.963.129-2.174.276-1.192.128-2 .229-2.422.302-.917.129-1.632.386-2.146.77-.513.386-.77.881-.77 1.487Z"/></svg>