<svg width="132" height="32" viewBox="0 0 132 32" fill="none" xmlns="http://www.w3.org/2000/svg">
<path fill-rule="evenodd" clip-rule="evenodd" d="M13.8159 3.12419C11.8118 5.12458 10.686 7.83769 10.686 10.6667V0C7.85189 0 5.13387 1.12381 3.12986 3.12419C1.12584 5.12458 0 7.83769 0 10.6667C0 13.4956 1.12584 16.2088 3.12986 18.2091C5.13387 20.2095 7.85189 21.3333 10.686 21.3333H0C0 24.1623 1.12584 26.8754 3.12986 28.8758C5.13387 30.8762 7.85189 32 10.686 32C13.5201 32 16.2381 30.8762 18.2421 28.8758C20.2462 26.8754 21.372 24.1623 21.372 21.3333V32C24.2061 32 26.9241 30.8762 28.9282 28.8758C30.9322 26.8754 32.058 24.1623 32.058 21.3333C32.058 18.5044 30.9322 15.7912 28.9281 13.7909C26.9241 11.7905 24.2061 10.6667 21.372 10.6667H32.058C32.058 7.83769 30.9322 5.12458 28.9282 3.12419C26.9241 1.12381 24.2061 0 21.372 0C18.5379 0 15.8199 1.12381 13.8159 3.12419ZM16.029 21.3333C18.9799 21.3333 21.372 18.9455 21.372 16C21.372 13.0545 18.9799 10.6667 16.029 10.6667C13.0781 10.6667 10.686 13.0545 10.686 16C10.686 18.9455 13.0781 21.3333 16.029 21.3333Z" fill="#264FE1"/>
<path d="M55.3819 8.44446V11.6231H48.0085V14.9511H54.1423V18.0658H48.0085V23.5485H44.5249V8.44446H55.3819Z" fill="#020105"/>
<path d="M60.9695 20.4125H68.3001V23.5485H57.4859V8.44446H60.9695V20.4125Z" fill="#020105"/>
<path d="M73.426 14.7165C74.0102 13.664 74.5872 12.6187 75.1572 11.5805C75.7413 10.5422 76.3326 9.4969 76.931 8.44446H80.8635L75.1358 17.9165V23.5485H71.6522V17.9378L65.8603 8.44446H69.8783L73.426 14.7165Z" fill="#020105"/>
<path d="M87.5394 19.4051V23.4592H86.2061V12.6433H90.2674C90.86 12.6433 91.3965 12.7045 91.8767 12.8269C92.3569 12.9493 92.7656 13.1431 93.1027 13.4082C93.4399 13.6734 93.6953 14.0253 93.869 14.4638C94.053 14.8922 94.1449 15.4123 94.1449 16.0242C94.1449 16.473 94.0785 16.8758 93.9457 17.2328C93.8128 17.5796 93.634 17.8855 93.4093 18.1507C93.1947 18.4057 92.9393 18.6198 92.643 18.7932C92.3467 18.9564 92.0401 19.0839 91.7234 19.1757L93.9916 23.4592H92.5357L90.3747 19.4051H87.5394ZM89.8383 18.1966C90.2368 18.1966 90.6097 18.166 90.9571 18.1048C91.3147 18.0436 91.6263 17.9314 91.892 17.7682C92.1576 17.6051 92.3671 17.3858 92.5204 17.1104C92.6838 16.8248 92.7707 16.4475 92.7809 15.9783C92.7809 15.2032 92.551 14.6576 92.0912 14.3414C91.6417 14.0151 90.9878 13.8519 90.1295 13.8519H87.5394V18.1966H89.8383Z" fill="#020105"/>
<path d="M102.914 15.397V23.4592H101.826L101.734 22.2965C101.591 22.5311 101.413 22.73 101.198 22.8931C100.994 23.0563 100.769 23.194 100.524 23.3062C100.289 23.4082 100.038 23.4796 99.7727 23.5204C99.5172 23.5714 99.2669 23.5969 99.0217 23.5969C98.4393 23.5969 97.9489 23.5051 97.5504 23.3215C97.1519 23.1379 96.8301 22.8829 96.5849 22.5566C96.3396 22.22 96.1659 21.8274 96.0638 21.3786C95.9616 20.9299 95.9105 20.4352 95.9105 19.8947V15.397H97.2132V19.5581C97.2132 19.9253 97.2285 20.2822 97.2592 20.629C97.3001 20.9758 97.3869 21.2817 97.5197 21.5469C97.6628 21.8121 97.8671 22.0262 98.1328 22.1894C98.3984 22.3526 98.7611 22.4393 99.2209 22.4495C99.6807 22.4495 100.069 22.3526 100.386 22.1588C100.702 21.965 100.953 21.7203 101.137 21.4245C101.331 21.1185 101.459 20.782 101.52 20.4148C101.581 20.0477 101.612 19.6703 101.612 19.2828V15.397H102.914Z" fill="#020105"/>
<path d="M108.094 16.4679C107.92 16.4679 107.721 16.4832 107.496 16.5138C107.271 16.5342 107.057 16.5852 106.852 16.6668C106.658 16.7381 106.495 16.8503 106.362 17.0033C106.229 17.1563 106.163 17.3603 106.163 17.6152C106.173 17.911 106.295 18.1405 106.53 18.3037C106.776 18.4669 107.098 18.5943 107.496 18.6861C107.68 18.7269 107.894 18.7677 108.14 18.8085C108.395 18.8493 108.651 18.8901 108.906 18.9309C109.161 18.9615 109.396 18.9972 109.611 19.038C109.836 19.0788 110.015 19.1145 110.147 19.1451C110.648 19.2879 111.011 19.5275 111.236 19.8641C111.46 20.2007 111.573 20.6035 111.573 21.0727C111.573 21.5724 111.481 21.9701 111.297 22.2659C111.113 22.5515 110.878 22.7912 110.592 22.9849C110.214 23.2093 109.831 23.3623 109.442 23.4439C109.054 23.5153 108.651 23.551 108.232 23.551C107.762 23.551 107.333 23.5102 106.944 23.4286C106.556 23.347 106.198 23.2195 105.871 23.0461C105.544 22.8727 105.264 22.6433 105.029 22.3577C104.804 22.0721 104.661 21.7101 104.599 21.2715H105.917C105.999 21.5061 106.132 21.6999 106.316 21.8529C106.51 21.9956 106.719 22.1078 106.944 22.1894C107.169 22.271 107.389 22.3271 107.603 22.3577C107.828 22.3781 108.012 22.3883 108.155 22.3883C108.39 22.3883 108.615 22.3781 108.829 22.3577C109.054 22.3373 109.274 22.2914 109.488 22.22C109.703 22.1384 109.887 22.0211 110.04 21.8682C110.193 21.7152 110.27 21.5112 110.27 21.2562C110.27 20.9197 110.173 20.6749 109.979 20.5219C109.795 20.3689 109.529 20.2567 109.182 20.1854C108.937 20.1344 108.661 20.0885 108.354 20.0477C108.048 19.9967 107.736 19.9457 107.419 19.8947C107.113 19.8335 106.811 19.7621 106.515 19.6805C106.229 19.5989 105.979 19.4918 105.764 19.3592C105.488 19.1961 105.269 18.9768 105.105 18.7014C104.952 18.4261 104.875 18.064 104.875 17.6152C104.885 17.1563 104.993 16.7738 105.197 16.4679C105.412 16.1619 105.677 15.9273 105.994 15.7642C106.321 15.5908 106.673 15.4735 107.052 15.4123C107.43 15.3409 107.823 15.3052 108.232 15.3052C108.732 15.3154 109.156 15.3715 109.504 15.4735C109.861 15.5755 110.173 15.7336 110.439 15.9477C110.704 16.1517 110.903 16.3914 111.036 16.6668C111.169 16.9319 111.251 17.2022 111.281 17.4776H110.086C110.066 17.3144 109.989 17.1665 109.856 17.0339C109.723 16.8911 109.57 16.784 109.396 16.7127C109.233 16.6311 109.034 16.5699 108.799 16.5291C108.564 16.4883 108.329 16.4679 108.094 16.4679Z" fill="#020105"/>
<path d="M116.4 16.4679C116.227 16.4679 116.027 16.4832 115.803 16.5138C115.578 16.5342 115.363 16.5852 115.159 16.6668C114.965 16.7381 114.801 16.8503 114.668 17.0033C114.536 17.1563 114.469 17.3603 114.469 17.6152C114.479 17.911 114.602 18.1405 114.837 18.3037C115.082 18.4669 115.404 18.5943 115.803 18.6861C115.986 18.7269 116.201 18.7677 116.446 18.8085C116.702 18.8493 116.957 18.8901 117.213 18.9309C117.468 18.9615 117.703 18.9972 117.918 19.038C118.142 19.0788 118.321 19.1145 118.454 19.1451C118.955 19.2879 119.317 19.5275 119.542 19.8641C119.767 20.2007 119.879 20.6035 119.879 21.0727C119.879 21.5724 119.787 21.9701 119.603 22.2659C119.419 22.5515 119.184 22.7912 118.898 22.9849C118.52 23.2093 118.137 23.3623 117.749 23.4439C117.361 23.5153 116.957 23.551 116.538 23.551C116.068 23.551 115.639 23.5102 115.251 23.4286C114.863 23.347 114.505 23.2195 114.178 23.0461C113.851 22.8727 113.57 22.6433 113.335 22.3577C113.11 22.0721 112.967 21.7101 112.906 21.2715H114.224C114.306 21.5061 114.439 21.6999 114.622 21.8529C114.817 21.9956 115.026 22.1078 115.251 22.1894C115.476 22.271 115.695 22.3271 115.91 22.3577C116.135 22.3781 116.319 22.3883 116.462 22.3883C116.697 22.3883 116.921 22.3781 117.136 22.3577C117.361 22.3373 117.58 22.2914 117.795 22.22C118.009 22.1384 118.193 22.0211 118.347 21.8682C118.5 21.7152 118.577 21.5112 118.577 21.2562C118.577 20.9197 118.479 20.6749 118.285 20.5219C118.101 20.3689 117.836 20.2567 117.488 20.1854C117.243 20.1344 116.967 20.0885 116.661 20.0477C116.354 19.9967 116.043 19.9457 115.726 19.8947C115.419 19.8335 115.118 19.7621 114.822 19.6805C114.536 19.5989 114.285 19.4918 114.071 19.3592C113.795 19.1961 113.575 18.9768 113.412 18.7014C113.258 18.4261 113.182 18.064 113.182 17.6152C113.192 17.1563 113.299 16.7738 113.504 16.4679C113.718 16.1619 113.984 15.9273 114.301 15.7642C114.628 15.5908 114.98 15.4735 115.358 15.4123C115.736 15.3409 116.129 15.3052 116.538 15.3052C117.039 15.3154 117.463 15.3715 117.81 15.4735C118.168 15.5755 118.479 15.7336 118.745 15.9477C119.011 16.1517 119.21 16.3914 119.343 16.6668C119.476 16.9319 119.557 17.2022 119.588 17.4776H118.393C118.372 17.3144 118.296 17.1665 118.163 17.0339C118.03 16.8911 117.877 16.784 117.703 16.7127C117.539 16.6311 117.34 16.5699 117.105 16.5291C116.87 16.4883 116.635 16.4679 116.4 16.4679Z" fill="#020105"/>
<path d="M122.699 12.4444C122.955 12.4444 123.164 12.526 123.327 12.6892C123.501 12.8422 123.588 13.0462 123.588 13.3011C123.588 13.5561 123.501 13.7652 123.327 13.9284C123.164 14.0916 122.955 14.1731 122.699 14.1731C122.454 14.1731 122.244 14.0916 122.071 13.9284C121.907 13.7652 121.826 13.5561 121.826 13.3011C121.826 13.0462 121.907 12.8422 122.071 12.6892C122.244 12.526 122.454 12.4444 122.699 12.4444ZM122.055 23.4592V16.5444H120.737V15.397H123.358V23.4592H122.055Z" fill="#020105"/>
<path d="M130.727 22.4801C130.339 22.8676 129.89 23.143 129.379 23.3062C128.95 23.4592 128.464 23.5357 127.923 23.5357C127.555 23.5357 127.218 23.4949 126.911 23.4133C126.605 23.3317 126.324 23.1991 126.068 23.0155C125.813 22.8319 125.609 22.5974 125.455 22.3118C125.312 22.0262 125.241 21.6795 125.241 21.2715C125.241 20.935 125.297 20.6392 125.409 20.3842C125.532 20.1293 125.695 19.9151 125.9 19.7417C126.104 19.5581 126.329 19.4102 126.574 19.2981C126.819 19.1757 127.11 19.0737 127.448 18.9921C127.887 18.9003 128.383 18.8238 128.934 18.7626C129.486 18.7014 130.084 18.6402 130.727 18.579C130.727 17.9263 130.564 17.4113 130.237 17.0339C129.92 16.6566 129.44 16.4628 128.796 16.4526C128.388 16.4526 128.02 16.5189 127.693 16.6515C127.376 16.784 127.131 17.0288 126.957 17.3858H125.578C125.649 17.0186 125.792 16.7025 126.007 16.4373C126.222 16.1721 126.477 15.9579 126.773 15.7948C127.07 15.6214 127.391 15.499 127.739 15.4276C128.096 15.346 128.444 15.3052 128.781 15.3052C129.404 15.3052 129.92 15.4021 130.329 15.5959C130.748 15.7795 131.08 16.0395 131.325 16.3761C131.57 16.7025 131.744 17.0951 131.846 17.5541C131.948 18.013 131.999 18.5127 131.999 19.0533V23.4592H130.835L130.727 22.4801ZM126.543 21.2256C126.543 21.4704 126.6 21.6744 126.712 21.8376C126.824 22.0007 126.962 22.1231 127.126 22.2047C127.289 22.2863 127.453 22.3424 127.616 22.373C127.79 22.3934 127.953 22.4036 128.107 22.4036C128.474 22.4036 128.801 22.3577 129.088 22.2659C129.384 22.1639 129.66 22.0262 129.915 21.8529C130.16 21.6897 130.354 21.4857 130.498 21.2409C130.651 20.9962 130.727 20.6443 130.727 20.1854V19.6499C130.595 19.6703 130.191 19.7213 129.517 19.8029C128.853 19.8743 128.403 19.9304 128.168 19.9712C127.657 20.0426 127.259 20.1854 126.973 20.3995C126.686 20.6137 126.543 20.8891 126.543 21.2256Z" fill="#020105"/>
</svg>
